<svg xmlns="http://www.w3.org/2000/svg" xmlns:xlink="http://www.w3.org/1999/xlink" xml:space="preserve" width="1000" height="1000"><defs><linearGradient id="b"><stop offset=".34410396" style="stop-color:#3613aa;stop-opacity:1"/><stop offset="1" style="stop-color:#b971fb;stop-opacity:1"/></linearGradient><linearGradient id="a"><stop offset="0" style="stop-color:#3613aa;stop-opacity:1"/><stop offset="1" style="stop-color:#b971fb;stop-opacity:1"/></linearGradient><linearGradient xlink:href="#a" id="k" x1="383.53067" x2="616.46948" y1="788.28003" y2="211.73621" gradientTransform="translate(-217.26214 -217.27395)scale(1.43452)" gradientUnits="userSpaceOnUse"/><linearGradient xlink:href="#a" id="d" x1="477.10141" x2="522.0542" y1="648.18909" y2="536.927" gradientUnits="userSpaceOnUse"/><linearGradient xlink:href="#b" id="j" x1="42.582035" x2="941.28882" y1="760" y2="384.01367" gradientUnits="userSpaceOnUse"/><linearGradient id="c"><stop offset="0" style="stop-color:#3613aa;stop-opacity:.75"/><stop offset="1" style="stop-color:#b76ffb;stop-opacity:.25"/></linearGradient><linearGradient xlink:href="#a" id="i" x1="7050.8247" x2="7740.2822" y1="3432.533" y2="1726.0652" gradientTransform="translate(436.55831 259.81624)scale(.91088)" gradientUnits="userSpaceOnUse"/><linearGradient xlink:href="#a" id="h" x1="9133.4854" x2="9756.3203" y1="3350.0854" y2="1808.5127" gradientUnits="userSpaceOnUse"/><linearGradient xlink:href="#c" id="f" x1="4.4081535" x2="8470.0293" y1="3444.2307" y2="3444.2307" gradientUnits="userSpaceOnUse"/><linearGradient xlink:href="#a" id="l" x1="477.10141" x2="522.0542" y1="648.18909" y2="536.927" gradientUnits="userSpaceOnUse"/><filter id="g" width="1.0482689" height="2.1494676" x="-.024134473" y="-.5747338" style="color-interpolation-filters:sRGB"><feGaussianBlur stdDeviation="89.098229"/></filter><filter id="e" width="1.2990616" height="1.2990616" x="-.1495308" y="-.1495308" style="color-interpolation-filters:sRGB"><feGaussianBlur stdDeviation="7.47654"/></filter></defs><g style="display:inline"><path d="M485 577.55804c11.18016-11.24381 14.57779-45 14.57779-45v120s-3.39763-33.75619-14.57779-45-45.42221-15-45.42221-15 34.24205-3.75619 45.42221-15zm29.15558 0c-11.18016-11.24381-14.57779-45-14.57779-45v120s3.39763-33.75619 14.57779-45 45.42221-15 45.42221-15-34.24205-3.75619-45.42221-15z" style="display:inline;opacity:.803098;mix-blend-mode:normal;fill:url(#d);fill-rule:nonzero;stroke:#000;stroke-width:0;stroke-linejoin:bevel;stroke-opacity:0;filter:url(#e)" transform="translate(-216.792120702 607.887997101)scale(.51417)"/><path d="M9002.786 3416.2206c-144.9372 8.6467-386.4244 20.0122-682.2803 32.2261-202.5684 8.3626-766.5421 29.3425-969.1105 37.7051-607.2243 23.8562-1260.9447 46.1842-2008.8773 56.8429-737.8083 10.5144-1426.8602 7.4155-2076.5882-6.4983-423.7-9.0735-870.0547-26.3557-1316.9531-51.1101-444.472-24.62-808.5591-52.0197-1099.26969-75.1635-142.65147-11.3566-255.60627-20.6959-349.33531-27.7613-92.67645-6.986-160.00867-11.2312-209.55975-12.4959-49.33937-1.2592-79.56049.4924-98.99746 5.0595-19.25067 4.5234-27.94473 11.8797-33.00248 21.4413-7.66039 14.482-12.16277 51.4243-13.1653 59.5911-1.02144 8.3208-5.51093 44.9583-1.20554 61.0304 2.8082 10.4831 9.83497 19.7432 27.97791 28.5181 18.22114 8.8127 48.07381 17.3585 97.17857 26.4265 49.07795 9.0632 117.54867 18.668 210.33071 29.0178 92.78203 10.3498 209.95329 21.435 351.91573 32.8113 288.58211 23.1256 664.00101 46.2004 1106.72971 64.8704 453.8087 19.1371 893.7755 30.2245 1323.5896 37.2551 647.418 10.5898 1349.4956 6.9464 2084.4476-16.6828 734.5985-23.6178 1420.7769-64.717 2012.1316-115.1032 339.0218-28.8863 670.023-65.0781 966.2071-100.9228 296.9956-35.9429 531.1364-68.0861 677.8364-87.0577" style="opacity:1;mix-blend-mode:normal;fill:url(#f);fill-rule:nonzero;stroke:none;stroke-width:84.6931;stroke-linejoin:bevel;stroke-dasharray:none;stroke-opacity:1;filter:url(#g)" transform="translate(41.455079185 629.674796558)scale(.0865)"/><path d="M8681.8253 3151.0903c88.9224 105.466 229.5437 130.2815 765.1454 130.2815 459.087 0 641.0683-28.9515 729.9903-115.8058 68.243-64.1068 99.262-163.3689 99.262-310.1942 0-136.4854-26.883-227.4756-84.786-287.4465-86.854-93.0583-213.0003-115.8058-626.5923-115.8058H9331.165c-217.1358 0-295.7184-8.2719-343.2815-35.1554-39.2912-22.7475-57.9029-62.0388-57.9029-119.9417 0-66.1747 24.8156-111.6699 74.4466-136.4854 301.5281-150.7638 1605.7858 162.3088 1085.6798-206.7961-115.8063-59.9709-252.2913-76.5145-612.1163-76.5145-457.0198 0-667.9518 33.0873-761.01 119.9417-66.1748 57.9029-103.3981 184.0485-103.3981 339.1456 0 119.9417 31.0194 206.7961 97.1942 266.7669 76.5145 70.3107 192.3203 93.0583 481.8349 93.0583h198.524c376.369 2.0761 376.369 2.0761 436.34 14.4757 95.126 20.6796 130.281 59.9709 130.281 142.6893 0 41.3592-14.475 84.7864-41.359 115.8058-24.815 28.9514-64.107 43.4272-142.689 53.767-651.3997 78.1678-1337.6604-202.1545-1091.8834 128.2136" style="font-weight:500;font-stretch:expanded;font-size:50.8px;font-family:&quot;Eurostile Round Extended&quot;;-inkscape-font-specification:&quot;Eurostile Round Extended Medium Expanded&quot;;opacity:1;fill:url(#h);stroke-width:3447.68;stroke-linejoin:bevel" transform="translate(42.940589349 629.674795283)scale(.0865)"/><path d="M7359.4934 1967.8582c-437.0094 0-561.3311 3.7673-676.2344 18.8366-190.2499 24.4876-301.3859 120.5543-331.5245 288.2002-13.1856 69.6955-16.953 145.0419-16.953 374.8486 0 335.2919 41.4406 461.4971 169.5296 531.1926 99.8341 52.7426 224.1557 69.6955 534.9599 69.6955 291.9675 0 457.7297-1.8911 540.6108-9.4183 145.042-9.4183 239.2251-39.5569 305.1532-97.9504 96.0668-84.7648 126.2054-205.3191 126.2054-519.8906 0-139.3909-1.8911-207.2028-7.5347-265.5963-11.3019-126.2053-39.5569-207.2028-92.2994-265.5963-86.6485-94.183-220.3884-124.3216-551.9129-124.3216m-178.9478 237.3414c536.8436 0 540.6109 3.7673 540.6109 397.4525 0 250.527-18.8366 329.6408-90.4158 367.3141-67.8118 37.6732-143.1583 43.3242-499.1703 43.3242-487.8683 0-501.0539-11.302-501.0539-401.22 0-403.1035 3.7673-406.8708 550.0291-406.8708" style="font-weight:500;font-stretch:expanded;font-size:50.8px;font-family:&quot;Eurostile Round Extended&quot;;-inkscape-font-specification:&quot;Eurostile Round Extended Medium Expanded&quot;;opacity:1;fill:url(#i);stroke-width:3140.42;stroke-linejoin:bevel" transform="translate(1.485505542 605.002938725)scale(.09496)"/><path d="M5283.6983 2354.0088c-71.5791 1.8911-111.136 45.2078-107.3686 122.438v638.5613c-3.7674 77.2301 35.7895 122.438 107.3686 122.438h32.0224c71.5791 0 111.136-45.2079 109.2523-122.438v-329.6408c0-182.7152 79.1138-250.527 290.0839-250.527 320.1073 0 129.7823 205.3192 316.4551 205.3192 193.2857 13.1528 135.519-235.7478 67.8119-312.6879-48.9753-56.5099-163.8786-90.4158-310.8043-90.4158-388.8677 0-375.5443 16.953-504.8213 16.953M4123.3665 2531.073l-3.7673 393.6852v24.4877c0 107.3687 16.9529 165.7622 62.1609 212.8537 64.0445 67.8119 160.1112 92.2995 361.663 92.2995 218.5047 0 316.4551-32.0223 371.0813-118.6708 20.7202-33.9059 30.1386-90.4157 30.1386-177.0641 0-153.2586-183.5093-162.2459-195.9008-9.4183-7.5346 92.2994-48.9752 120.5543-171.4132 120.5543-173.2969 0-207.2028-30.1386-205.3191-186.4825l3.7673-352.2447h469.0317c69.6955 0 109.2524-32.0222 109.2524-88.5321s-39.5569-88.5321-109.2524-88.5321h-469.0317v-80.9974c3.7673-77.2301-33.9059-122.4381-107.3687-122.4381h-33.9059c-73.4629 0-111.1361 43.3243-109.2524 122.4381v80.9974h-92.2994c-69.6955 0-109.2524 32.0222-109.2524 88.5321s39.5569 88.5321 109.2524 88.5321z" style="font-weight:500;font-stretch:expanded;font-size:50.8px;font-family:&quot;Eurostile Round Extended&quot;;-inkscape-font-specification:&quot;Eurostile Round Extended Medium Expanded&quot;;opacity:1;fill:#fff;stroke-width:3140.42;stroke-linejoin:bevel" transform="translate(1.485505542 605.002938725)scale(.09496)"/><path d="M2703.7258 3169.2847c58.0939 68.9021 149.9633 85.1144 499.8776 85.1144 299.9265 0 418.8168-18.9143 476.9106-75.6572 44.5838-41.8816 64.8489-106.7306 64.8489-202.6532 0-89.1674-17.563-148.6122-55.3917-187.7918-56.7426-60.7961-139.1553-75.6573-409.3594-75.6573h-152.6655c-141.8571 0-193.1959-5.4041-224.2695-22.9673-25.6693-14.8613-37.8286-40.5307-37.8286-78.3593 0-43.2326 16.2124-72.9551 48.6369-89.1673 196.9915-98.4956 1049.077 106.0381 709.2862-135.1021-75.6575-39.1797-164.8246-49.9878-399.9022-49.9878-298.5759 0-436.38 21.6163-497.1759 78.3592-43.2328 37.8286-67.5511 120.2409-67.5511 221.5675 0 78.3592 20.2653 135.1021 63.498 174.2816 49.9877 45.9348 125.6449 60.7961 314.7879 60.7961h129.6978c245.8859 1.3563 245.8859 1.3563 285.0656 9.4571 62.1469 13.5101 85.1141 39.1796 85.1141 93.2204 0 27.0204-9.4566 55.3919-27.0204 75.6572-16.2119 18.9142-41.8817 28.3714-93.2202 35.1265-425.5664 51.0679-873.9079-132.0697-713.3391 83.7633" style="font-weight:500;font-stretch:expanded;font-size:50.8px;font-family:&quot;Eurostile Round Extended&quot;;-inkscape-font-specification:&quot;Eurostile Round Extended Medium Expanded&quot;;opacity:1;fill:#fff;fill-opacity:1;stroke-width:2252.4;stroke-linejoin:bevel" transform="translate(1.485505542 605.002938725)scale(.09496)"/><path d="m2017.4322 2988.8028 88.532 156.3438c35.7896 71.5793 77.2301 96.0668 156.344 92.2995h82.8811c50.8588 0 82.881-26.3712 82.881-67.8119 0-11.3019-5.651-26.3712-16.9529-47.0915l-591.4697-1049.1995c-37.6732-71.5791-79.1138-96.0667-160.1113-92.2994h-178.9478c-80.9975-3.7673-122.438 20.7203-160.1112 92.2994L719.58935 3124.4264c-11.30198 16.9529-16.95296 33.9059-16.95296 45.2078 0 43.3243 30.13858 67.8119 82.88115 67.8119h88.53204c80.99743 3.7673 122.43804-20.7202 158.22752-94.1831l86.6485-154.4602zm-109.2525-203.4355h-678.1181l337.1754-600.888z" style="font-weight:500;font-stretch:expanded;font-size:50.8px;font-family:&quot;Eurostile Round Extended&quot;;-inkscape-font-specification:&quot;Eurostile Round Extended Medium Expanded&quot;;display:inline;opacity:1;fill:#fff;fill-opacity:1;stroke-width:3140.42;stroke-linejoin:bevel" transform="translate(1.485505542 605.002938725)scale(.09496)"/></g><path d="M42.89559 703.33516c26.832534 14.60467 83.32661 49.31938 157.66386 73.1224 41.69203 13.34991 95.98634 26.26743 157.25828 32.66899 61.70756 6.44707 125.29857 5.77621 188.52525-3.88172 70.77239-10.81055 134.01858-31.79957 188.61045-59.22273 57.76852-29.01889 101.28159-62.90553 132.47041-93.57886 1.08789-1.06992 2.16586-2.14116 3.2339-3.21361 37.11311-37.26615 62.60146-76.30474 77.03657-112.72196 7.66909-19.34776 12.35113-38.27061 13.95227-56.21339 1.66285-18.63436.0126-36.38038-5.21052-52.36232-3.28713-10.05804-7.95216-19.29301-13.9435-27.45704-3.75664-5.11893-8.15557-9.89301-13.19734-14.17919-12.60527-10.71616-27.88875-17.28534-44.77168-20.08814-17.62264-2.9256-36.10706-1.62942-54.12127 1.87812-25.31811 4.92969-49.0366 14.13308-64.355 20.33264 16.64724-2.98207 41.152-5.62024 65.10915-2.7102 17.05192 2.07126 31.39162 6.65247 42.32978 13.39038 10.064 6.19941 16.01379 13.5481 19.45884 20.35762 1.39657 2.76045 2.44311 5.51068 3.26683 8.1831 1.30565 4.23594 2.10508 8.88516 2.39492 13.93837.46147 8.04533-.33795 17.73843-3.04332 29.08566-2.61519 10.96897-7.01613 23.48529-13.72337 37.30342-12.62536 26.01052-33.48605 56.6657-64.67262 88.03113-.89495.90008-1.79839 1.80069-2.7104 2.70178-26.11646 25.80353-63.11222 55.49112-113.1549 82.07477-47.34625 25.15126-102.87323 45.64535-166.4787 58.18923-56.98844 11.2389-114.95154 15.03099-173.03771 13.14643-58.05779-1.88364-109.37571-9.17286-151.41454-16.09505-74.39107-12.24936-137.037816-24.18245-167.47564-32.67983" style="opacity:1;fill:url(#j);fill-rule:nonzero;stroke:none;stroke-width:80;stroke-linejoin:bevel;stroke-dasharray:none" transform="translate(130.440776175 59.479534)scale(.73532)"/><path d="M500.29701 54.719694c-4.61512-.0143-9.27448.340068-13.94179 1.084303-27.58387 4.398203-51.35628 21.823306-63.85314 46.804153L63.870988 819.87031c-21.40048 42.80092-4.05198 94.84645 38.748982 116.2469 42.80093 21.40049 94.84646 4.05199 116.2469-38.74897L448.416 401.72328a56.846634 56.846634 0 0 1 103.16805 0l126.35022 272.81738c53.06994-31.21539 99.03183-63.52547 138.09813-94.86352L577.49795 102.60815c-14.80164-29.588095-44.89519-47.788932-77.20094-47.888456M864.2095 676.03122c-41.269 31.46208-88.7105 63.13342-142.38496 93.27771l59.30866 128.05931c21.4004 42.80096 73.4459 60.14946 116.2469 38.74897 42.8009-21.40045 60.1494-73.44598 38.7489-116.2469z" style="baseline-shift:baseline;display:inline;overflow:visible;opacity:1;vector-effect:none;fill:url(#k);fill-opacity:1;fill-rule:nonzero;stroke:#000;stroke-width:1.43453;stroke-linecap:round;stroke-linejoin:round;stroke-opacity:0;enable-background:accumulate;stop-color:#000;stop-opacity:1" transform="translate(132.3394 59.479534)scale(.73532)"/><path d="M485 577.55804c11.18016-11.24381 14.57779-45 14.57779-45v120s-3.39763-33.75619-14.57779-45-45.42221-15-45.42221-15 34.24205-3.75619 45.42221-15zm29.15558 0c-11.18016-11.24381-14.57779-45-14.57779-45v120s3.39763-33.75619 14.57779-45 45.42221-15 45.42221-15-34.24205-3.75619-45.42221-15z" style="fill:url(#l);fill-rule:nonzero;stroke:#000;stroke-width:0;stroke-linejoin:bevel;stroke-opacity:0" transform="translate(-160.875943427 -292.774189731)scale(1.32287)"/></svg>