<svg xmlns="http://www.w3.org/2000/svg" xmlns:xlink="http://www.w3.org/1999/xlink" xml:space="preserve" width="676.03436" height="676.034"><defs><linearGradient id="b"><stop offset=".34410396" style="stop-color:#3613aa;stop-opacity:1"/><stop offset="1" style="stop-color:#b971fb;stop-opacity:1"/></linearGradient><linearGradient id="a"><stop offset="0" style="stop-color:#3613aa;stop-opacity:1"/><stop offset="1" style="stop-color:#b971fb;stop-opacity:1"/></linearGradient><linearGradient xlink:href="#a" id="d" x1="383.53067" x2="616.46948" y1="788.28003" y2="211.73621" gradientTransform="translate(-217.26214 -217.27395)scale(1.43452)" gradientUnits="userSpaceOnUse"/><linearGradient xlink:href="#b" id="c" x1="42.582035" x2="941.28882" y1="760" y2="384.01367" gradientUnits="userSpaceOnUse"/><linearGradient xlink:href="#a" id="e" x1="477.10141" x2="522.0542" y1="648.18909" y2="536.927" gradientUnits="userSpaceOnUse"/></defs><path d="M42.89559 703.33516c26.832534 14.60467 83.32661 49.31938 157.66386 73.1224 41.69203 13.34991 95.98634 26.26743 157.25828 32.66899 61.70756 6.44707 125.29857 5.77621 188.52525-3.88172 70.77239-10.81055 134.01858-31.79957 188.61045-59.22273 57.76852-29.01889 101.28159-62.90553 132.47041-93.57886 1.08789-1.06992 2.16586-2.14116 3.2339-3.21361 37.11311-37.26615 62.60146-76.30474 77.03657-112.72196 7.66909-19.34776 12.35113-38.27061 13.95227-56.21339 1.66285-18.63436.0126-36.38038-5.21052-52.36232-3.28713-10.05804-7.95216-19.29301-13.9435-27.45704-3.75664-5.11893-8.15557-9.89301-13.19734-14.17919-12.60527-10.71616-27.88875-17.28534-44.77168-20.08814-17.62264-2.9256-36.10706-1.62942-54.12127 1.87812-25.31811 4.92969-49.0366 14.13308-64.355 20.33264 16.64724-2.98207 41.152-5.62024 65.10915-2.7102 17.05192 2.07126 31.39162 6.65247 42.32978 13.39038 10.064 6.19941 16.01379 13.5481 19.45884 20.35762 1.39657 2.76045 2.44311 5.51068 3.26683 8.1831 1.30565 4.23594 2.10508 8.88516 2.39492 13.93837.46147 8.04533-.33795 17.73843-3.04332 29.08566-2.61519 10.96897-7.01613 23.48529-13.72337 37.30342-12.62536 26.01052-33.48605 56.6657-64.67262 88.03113-.89495.90008-1.79839 1.80069-2.7104 2.70178-26.11646 25.80353-63.11222 55.49112-113.1549 82.07477-47.34625 25.15126-102.87323 45.64535-166.4787 58.18923-56.98844 11.2389-114.95154 15.03099-173.03771 13.14643-58.05779-1.88364-109.37571-9.17286-151.41454-16.09505-74.39107-12.24936-137.037816-24.18245-167.47564-32.67983" style="opacity:1;fill:url(#c);fill-rule:nonzero;stroke:none;stroke-width:80;stroke-linejoin:bevel;stroke-dasharray:none" transform="translate(-31.542043825 -29.643604)scale(.73532)"/><path d="M500.29701 54.719694c-4.61512-.0143-9.27448.340068-13.94179 1.084303-27.58387 4.398203-51.35628 21.823306-63.85314 46.804153L63.870988 819.87031c-21.40048 42.80092-4.05198 94.84645 38.748982 116.2469 42.80093 21.40049 94.84646 4.05199 116.2469-38.74897L448.416 401.72328a56.846634 56.846634 0 0 1 103.16805 0l126.35022 272.81738c53.06994-31.21539 99.03183-63.52547 138.09813-94.86352L577.49795 102.60815c-14.80164-29.588095-44.89519-47.788932-77.20094-47.888456M864.2095 676.03122c-41.269 31.46208-88.7105 63.13342-142.38496 93.27771l59.30866 128.05931c21.4004 42.80096 73.4459 60.14946 116.2469 38.74897 42.8009-21.40045 60.1494-73.44598 38.7489-116.2469z" style="baseline-shift:baseline;display:inline;overflow:visible;opacity:1;vector-effect:none;fill:url(#d);fill-opacity:1;fill-rule:nonzero;stroke:#000;stroke-width:1.43453;stroke-linecap:round;stroke-linejoin:round;stroke-opacity:0;stop-color:#000;stop-opacity:1" transform="translate(-29.64342 -29.643604)scale(.73532)"/><path d="M485 577.55804c11.18016-11.24381 14.57779-45 14.57779-45v120s-3.39763-33.75619-14.57779-45-45.42221-15-45.42221-15 34.24205-3.75619 45.42221-15zm29.15558 0c-11.18016-11.24381-14.57779-45-14.57779-45v120s3.39763-33.75619 14.57779-45 45.42221-15 45.42221-15-34.24205-3.75619-45.42221-15z" style="fill:url(#e);fill-rule:nonzero;stroke:#000;stroke-width:0;stroke-linejoin:bevel;stroke-opacity:0" transform="translate(-322.858763427 -381.897327731)scale(1.32287)"/></svg>